<svg width="72" height="52" viewBox="0 0 72 52" fill="none" xmlns="http://www.w3.org/2000/svg">
<path d="M0.0253906 0H50.1641C61.7556 0 71.1523 9.39677 71.1523 20.9883V30.3164C71.1523 41.9079 61.7556 51.3047 50.1641 51.3047H0.0253906V0Z" fill="#ED1C24" fill-opacity="0.46"/>
<path fill-rule="evenodd" clip-rule="evenodd" d="M33.5862 15.9355C38.8042 15.9355 43.0485 20.1798 43.0485 25.3978C43.0485 27.8596 42.1037 30.1048 40.5577 31.79L43.5998 34.8257C43.8845 35.1104 43.8855 35.571 43.6008 35.8557C43.4589 35.9995 43.2714 36.0704 43.0848 36.0704C42.8992 36.0704 42.7126 35.9995 42.5698 35.8576L39.491 32.7874C37.8714 34.0844 35.8179 34.861 33.5862 34.861C28.3683 34.861 24.123 30.6157 24.123 25.3978C24.123 20.1798 28.3683 15.9355 33.5862 15.9355ZM33.5862 17.3931C29.1719 17.3931 25.5806 20.9834 25.5806 25.3978C25.5806 29.8121 29.1719 33.4034 33.5862 33.4034C37.9996 33.4034 41.5909 29.8121 41.5909 25.3978C41.5909 20.9834 37.9996 17.3931 33.5862 17.3931Z" fill="#1C1C1C" fill-opacity="0.7"/>
</svg>
